<?xml version="1.0" encoding="UTF-8"?>
<svg xmlns="http://www.w3.org/2000/svg" xmlns:xlink="http://www.w3.org/1999/xlink" width="324.76pt" height="365pt" viewBox="0 0 324.76 365" version="1.1">
<defs>
<clipPath id="clip1">
  <path d="M 162 91 L 324.761719 91 L 324.761719 274 L 162 274 Z M 162 91 "/>
</clipPath>
</defs>
<g id="surface1">
<path style=" stroke:none;fill-rule:nonzero;fill:rgb(60.798645%,28.599548%,57.998657%);fill-opacity:1;" d="M 324.742188 107.308594 C 324.738281 101.171875 323.425781 95.75 320.769531 91.09375 C 318.164063 86.519531 314.257813 82.683594 309.023438 79.648438 C 265.785156 54.71875 222.511719 29.867188 179.289063 4.914063 C 167.640625 -1.8125 156.34375 -1.570313 144.777344 5.253906 C 127.566406 15.402344 41.410156 64.765625 15.738281 79.636719 C 5.164063 85.757813 0.0195313 95.121094 0.015625 107.300781 C 0 157.433594 0.015625 207.566406 0 257.699219 C 0.00390625 263.703125 1.257813 269.019531 3.796875 273.605469 C 6.40625 278.320313 10.363281 282.261719 15.722656 285.363281 C 41.398438 300.234375 127.566406 349.59375 144.769531 359.742188 C 156.34375 366.570313 167.640625 366.8125 179.296875 360.085938 C 222.515625 335.128906 265.796875 310.277344 309.035156 285.347656 C 314.394531 282.246094 318.351563 278.304688 320.960938 273.59375 C 323.496094 269.007813 324.753906 263.691406 324.757813 257.6875 C 324.757813 257.6875 324.757813 157.445313 324.742188 107.308594 "/>
<path style=" stroke:none;fill-rule:nonzero;fill:rgb(40.79895%,15.699768%,46.299744%);fill-opacity:1;" d="M 162.875 182.011719 L 3.796875 273.605469 C 6.40625 278.320313 10.363281 282.261719 15.722656 285.363281 C 41.398438 300.234375 127.566406 349.59375 144.769531 359.742188 C 156.34375 366.570313 167.640625 366.8125 179.296875 360.085938 C 222.515625 335.128906 265.796875 310.277344 309.035156 285.347656 C 314.394531 282.246094 318.351563 278.304688 320.960938 273.59375 L 162.875 182.011719 "/>
<path style=" stroke:none;fill-rule:nonzero;fill:rgb(40.79895%,15.699768%,46.299744%);fill-opacity:1;" d="M 115.757813 209.140625 C 125.015625 225.300781 142.417969 236.203125 162.378906 236.203125 C 182.464844 236.203125 199.964844 225.164063 209.175781 208.832031 L 162.875 182.011719 L 115.757813 209.140625 "/>
<g clip-path="url(#clip1)" clip-rule="nonzero">
<path style=" stroke:none;fill-rule:nonzero;fill:rgb(50.999451%,18.798828%,52.198792%);fill-opacity:1;" d="M 324.742188 107.308594 C 324.738281 101.171875 323.425781 95.75 320.769531 91.09375 L 162.875 182.011719 L 320.960938 273.59375 C 323.496094 269.007813 324.753906 263.691406 324.757813 257.6875 C 324.757813 257.6875 324.757813 157.445313 324.742188 107.308594 "/>
</g>
<path style=" stroke:none;fill-rule:nonzero;fill:rgb(100%,100%,100%);fill-opacity:1;" d="M 209.175781 208.832031 C 199.964844 225.164063 182.464844 236.203125 162.378906 236.203125 C 142.417969 236.203125 125.015625 225.300781 115.757813 209.140625 C 111.261719 201.289063 108.675781 192.199219 108.675781 182.5 C 108.675781 152.839844 132.71875 128.796875 162.378906 128.796875 C 182.210938 128.796875 199.523438 139.5625 208.824219 155.554688 L 255.765625 128.527344 C 237.105469 96.320313 202.273438 74.652344 162.378906 74.652344 C 102.816406 74.652344 54.53125 122.9375 54.53125 182.5 C 54.53125 202.039063 59.730469 220.363281 68.816406 236.167969 C 87.425781 268.542969 122.355469 290.347656 162.378906 290.347656 C 202.472656 290.347656 237.460938 268.457031 256.042969 235.984375 L 209.175781 208.832031 "/>
<path style=" stroke:none;fill-rule:nonzero;fill:rgb(100%,100%,100%);fill-opacity:1;" d="M 268.488281 208.664063 L 257.820313 208.664063 L 257.820313 157 L 268.488281 157 L 268.488281 208.664063 "/>
<path style=" stroke:none;fill-rule:nonzero;fill:rgb(100%,100%,100%);fill-opacity:1;" d="M 292.152344 208.664063 L 281.488281 208.664063 L 281.488281 157 L 292.152344 157 L 292.152344 208.664063 "/>
<path style=" stroke:none;fill-rule:nonzero;fill:rgb(100%,100%,100%);fill-opacity:1;" d="M 249.152344 176.332031 L 249.152344 165.664063 L 300.820313 165.664063 L 300.820313 176.332031 L 249.152344 176.332031 "/>
<path style=" stroke:none;fill-rule:nonzero;fill:rgb(100%,100%,100%);fill-opacity:1;" d="M 249.152344 200 L 249.152344 189.332031 L 300.820313 189.332031 L 300.820313 200 L 249.152344 200 "/>
</g>
</svg>
